<svg width="63" height="69" viewBox="0 0 63 69" fill="none" xmlns="http://www.w3.org/2000/svg">
<path d="M48.1947 35.3363H38.5532V27.8381C38.5532 24.3512 37.6084 21.8141 35.7319 20.3116C32.7812 17.9445 28.7693 19.2769 28.601 19.3478C27.954 19.5745 27.5139 20.2266 27.5139 20.9636V29.8508C27.5139 32.6006 26.3104 34.9252 23.942 36.7962C22.402 38.0152 20.8231 38.653 20.2666 38.8515C19.8525 38.1569 19.1407 37.7033 18.3254 37.7033H9.99093C8.70971 37.7033 7.67438 38.8515 7.67438 40.2405V65.1304C7.67438 66.5337 8.72265 67.6676 9.99093 67.6676H18.3254C18.8948 67.6676 19.4125 67.4408 19.8266 67.0723C21.0561 68.2771 22.6738 69 24.4209 69H44.2863C46.2535 69 48.0006 68.4755 49.3336 67.4975C51.0289 66.2502 52.0902 64.2374 52.3749 61.7003L54.9891 43.5431C55.0279 43.2738 55.0409 43.0187 55.0409 42.7635C54.8985 38.6814 51.8184 35.3363 48.1947 35.3363ZM17.5359 64.2941H10.7674V41.1193H17.5359V64.2941ZM51.9219 43.0328L49.3077 61.2183C49.3077 61.2325 49.3077 61.2609 49.2948 61.275C49.1783 62.3523 48.8159 65.6123 44.2863 65.6123H24.4209C22.6091 65.6123 21.0561 64.1949 20.7196 62.2531C20.7066 62.168 20.6807 62.083 20.6549 61.9979V42.2674C20.7325 42.2533 20.8231 42.2391 20.9008 42.2107C21.0043 42.1824 23.3338 41.4595 25.6762 39.631C28.9116 37.1222 30.6199 33.7346 30.6199 29.8508V22.3527C31.5517 22.2393 32.9106 22.2535 33.8942 23.0472C34.9166 23.8693 35.4472 25.4852 35.4472 27.8239V37.023C35.4472 37.9585 36.146 38.7239 37.0002 38.7239H48.1947C50.1489 38.7239 51.8572 40.6374 51.9349 42.9053C51.9349 42.9195 51.9349 42.962 51.9219 43.0328Z" fill="white"/>
<path d="M32.9235 14.401C33.7777 14.401 34.4765 13.6356 34.4765 12.7001V1.7009C34.4765 0.765407 33.7777 0 32.9235 0C32.0694 0 31.3705 0.765407 31.3705 1.7009V12.6859C31.3705 13.6356 32.0694 14.401 32.9235 14.401Z" fill="white"/>
<path d="M42.1898 26.4065C42.1898 27.342 42.8887 28.1074 43.7428 28.1074H53.7726C54.6268 28.1074 55.3256 27.342 55.3256 26.4065C55.3256 25.471 54.6268 24.7056 53.7726 24.7056H43.7428C42.8887 24.7056 42.1898 25.471 42.1898 26.4065Z" fill="white"/>
<path d="M12.0616 28.1074H22.0914C22.9455 28.1074 23.6444 27.342 23.6444 26.4065C23.6444 25.471 22.9455 24.7056 22.0914 24.7056H12.0616C11.2075 24.7056 10.5086 25.471 10.5086 26.4065C10.5086 27.342 11.2075 28.1074 12.0616 28.1074Z" fill="white"/>
<path d="M16.3453 9.7093C16.7594 9.7093 17.1606 9.52504 17.4453 9.21321C17.7301 8.90137 17.8983 8.46197 17.8983 8.0084C17.8983 7.55482 17.7301 7.11542 17.4453 6.80359C17.1606 6.49176 16.7594 6.3075 16.3453 6.3075C15.9312 6.3075 15.53 6.49176 15.2453 6.80359C14.9605 7.11542 14.7923 7.55482 14.7923 8.0084C14.7923 8.46197 14.9605 8.90137 15.2453 9.21321C15.53 9.53921 15.9312 9.7093 16.3453 9.7093Z" fill="white"/>
<path d="M19.8913 13.593C20.2925 13.593 20.6808 13.4229 20.9914 13.0969C21.5996 12.4308 21.5996 11.3535 20.9914 10.6873C20.3831 10.0211 19.3995 10.0211 18.7913 10.6873C18.183 11.3535 18.183 12.4308 18.7913 13.0969C19.0889 13.4371 19.4901 13.593 19.8913 13.593Z" fill="white"/>
<path d="M23.4373 17.491C23.8515 17.491 24.2527 17.3067 24.5374 16.9949C24.8221 16.6831 24.9903 16.2437 24.9903 15.7901C24.9903 15.3365 24.8221 14.8971 24.5374 14.5853C24.2527 14.2734 23.8515 14.0892 23.4373 14.0892C23.0232 14.0892 22.622 14.2734 22.3373 14.5853C22.0526 14.8971 21.8843 15.3365 21.8843 15.7901C21.8843 16.2437 22.0526 16.6831 22.3373 16.9949C22.622 17.3067 23.0232 17.491 23.4373 17.491Z" fill="white"/>
<path d="M48.4406 10.5031C48.8548 10.5031 49.256 10.3188 49.5407 10.007C49.8254 9.69514 49.9936 9.25574 49.9936 8.80216C49.9936 8.34859 49.8254 7.90919 49.5407 7.59735C49.256 7.28552 48.8548 7.10126 48.4406 7.10126C48.0265 7.10126 47.6253 7.28552 47.3406 7.59735C47.0559 7.90919 46.8876 8.34859 46.8876 8.80216C46.8876 9.25574 47.0559 9.69514 47.3406 10.007C47.6253 10.333 48.0265 10.5031 48.4406 10.5031Z" fill="white"/>
<path d="M44.8946 14.401C45.2958 14.401 45.6841 14.2309 45.9947 13.9049C46.6029 13.2387 46.6029 12.1614 45.9947 11.4952C45.3864 10.8291 44.4028 10.8291 43.7946 11.4952C43.1863 12.1614 43.1863 13.2387 43.7946 13.9049C44.0922 14.2309 44.4934 14.401 44.8946 14.401Z" fill="white"/>
<path d="M41.3486 18.2847C41.7627 18.2847 42.1639 18.1005 42.4486 17.7886C42.7334 17.4768 42.9016 17.0374 42.9016 16.5838C42.9016 16.1303 42.7334 15.6909 42.4486 15.379C42.1639 15.0672 41.7627 14.8829 41.3486 14.8829C40.9345 14.8829 40.5333 15.0672 40.2486 15.379C39.9638 15.6909 39.7956 16.1303 39.7956 16.5838C39.7956 17.0374 39.9638 17.4768 40.2486 17.7886C40.5333 18.1005 40.9345 18.2847 41.3486 18.2847Z" fill="white"/>
</svg>
