<?xml version="1.0" encoding="utf-8"?>
<!-- Generator: Adobe Illustrator 26.5.0, SVG Export Plug-In . SVG Version: 6.00 Build 0)  -->
<svg version="1.1" id="Capa_1" xmlns="http://www.w3.org/2000/svg" xmlns:xlink="http://www.w3.org/1999/xlink" x="0px" y="0px"
	 viewBox="0 0 222 39" style="enable-background:new 0 0 222 39;" xml:space="preserve">
<style type="text/css">
	.st0{clip-path:url(#SVGID_00000108999328480390789140000016125382079983433382_);}
	.st1{fill:#949EAD;}
	.st2{fill:#EAE4E1;}
	.st3{fill:#9B867B;}
	.st4{fill:#4B505E;}
</style>
<g>
	<defs>
		<rect id="SVGID_1_" width="222" height="39"/>
	</defs>
	<clipPath id="SVGID_00000059998464014625946430000016944090134730399637_">
		<use xlink:href="#SVGID_1_"  style="overflow:visible;"/>
	</clipPath>
	<g style="clip-path:url(#SVGID_00000059998464014625946430000016944090134730399637_);">
		<path class="st1" d="M18.4,38.4c10.2,0,18.4-8.2,18.4-18.3S28.6,1.9,18.4,1.9C8.2,1.9,0,10.1,0,20.2S8.2,38.4,18.4,38.4z"/>
		<path class="st2" d="M27.8,10.7H9.1c-0.5,0-0.9,0.4-0.9,0.9v4.6c0,0.5,0.4,0.9,0.9,0.9h1.4L11,29c0,0.3,0.3,0.6,0.6,0.6h0.6
			c0.3,0,0.6-0.2,0.6-0.6l0.2-4.5h10.7L24,29c0,0.3,0.3,0.6,0.6,0.6h0.6c0.3,0,0.6-0.2,0.6-0.6l0.6-12h1.4c0.5,0,0.9-0.4,0.9-0.9
			v-4.6C28.6,11.1,28.2,10.7,27.8,10.7L27.8,10.7z M12.2,29l-0.6,0l-0.6-11.9h1.7L12.2,29L12.2,29z M13.1,23.9l0-0.9h10.6l0,0.9
			H13.1z M13.1,22.4l0.2-5.4h10.1l0.2,5.4H13.1L13.1,22.4z M25.2,29l-0.6,0l-0.6-11.9h1.7L25.2,29L25.2,29z M28,16.2
			c0,0.2-0.1,0.3-0.3,0.3H9.1c-0.2,0-0.3-0.1-0.3-0.3v-4.6c0-0.2,0.1-0.3,0.3-0.3h18.7c0.2,0,0.3,0.1,0.3,0.3V16.2z"/>
		<path class="st3" d="M82.6,38.4c10.2,0,18.4-8.2,18.4-18.3S92.8,1.9,82.6,1.9s-18.4,8.2-18.4,18.3S72.5,38.4,82.6,38.4z"/>
		<path class="st2" d="M91.7,8.3H73.6c-0.4,0-0.8,0.3-0.8,0.8v19.6c0,0.4,0.3,0.8,0.8,0.8h0.6l0.3,2.1c0,0.3,0.3,0.4,0.5,0.4h0.9
			c0.3,0,0.5-0.2,0.5-0.4l0.3-2.1h12l0.3,2.1c0,0.3,0.3,0.4,0.5,0.4h0.9c0.3,0,0.5-0.2,0.5-0.4l0.3-2.1h0.6c0.4,0,0.8-0.3,0.8-0.8
			V9.1C92.5,8.7,92.1,8.3,91.7,8.3z M75.8,31.4H75l-0.2-1.9H76L75.8,31.4z M90.2,31.4h-0.8l-0.2-1.9h1.2L90.2,31.4z M91.9,28.7
			c0,0.1-0.1,0.2-0.2,0.2H73.6c-0.1,0-0.2-0.1-0.2-0.2v-6.1h18.5L91.9,28.7L91.9,28.7z M91.9,22H73.4v-6.2h18.5V22z M91.9,15.2H73.4
			V9.1c0-0.1,0.1-0.2,0.2-0.2h18.1c0.1,0,0.2,0.1,0.2,0.2L91.9,15.2L91.9,15.2z"/>
		<path class="st2" d="M77.2,11.5c-0.3,0-0.6,0.3-0.6,0.6s0.3,0.6,0.6,0.6c0.3,0,0.6-0.3,0.6-0.6S77.5,11.5,77.2,11.5z"/>
		<path class="st2" d="M88.1,11.5c-0.3,0-0.6,0.3-0.6,0.6s0.3,0.6,0.6,0.6c0.3,0,0.6-0.3,0.6-0.6S88.4,11.5,88.1,11.5z"/>
		<path class="st2" d="M77.2,19.5c0.3,0,0.6-0.3,0.6-0.6s-0.3-0.6-0.6-0.6c-0.3,0-0.6,0.3-0.6,0.6S76.9,19.5,77.2,19.5z"/>
		<path class="st2" d="M88.1,19.5c0.3,0,0.6-0.3,0.6-0.6s-0.3-0.6-0.6-0.6c-0.3,0-0.6,0.3-0.6,0.6S87.8,19.5,88.1,19.5z"/>
		<path class="st2" d="M77.2,26.3c0.3,0,0.6-0.3,0.6-0.6s-0.3-0.6-0.6-0.6c-0.3,0-0.6,0.3-0.6,0.6S76.9,26.3,77.2,26.3z"/>
		<path class="st2" d="M88.1,26.3c0.3,0,0.6-0.3,0.6-0.6s-0.3-0.6-0.6-0.6c-0.3,0-0.6,0.3-0.6,0.6S87.8,26.3,88.1,26.3z"/>
		<path class="st4" d="M50.5,38.4c10.2,0,18.4-8.2,18.4-18.3S60.7,1.9,50.5,1.9s-18.4,8.2-18.4,18.3S40.4,38.4,50.5,38.4z"/>
		<path class="st2" d="M53.2,8c-0.1-0.3-0.4-0.5-0.7-0.5h-3.9c-0.3,0-0.6,0.2-0.7,0.5l-3.6,11.3c-0.1,0.2,0,0.4,0.1,0.5
			c0.1,0.2,0.3,0.2,0.5,0.2h1.5v2.6c-0.3,0.1-0.6,0.4-0.6,0.8c0,0.5,0.4,0.9,0.9,0.9c0.5,0,0.9-0.4,0.9-0.9c0-0.4-0.2-0.7-0.6-0.8
			v-2.6h2.4v9.7L46.3,32c-0.1,0.1-0.2,0.3-0.1,0.5c0.1,0.2,0.2,0.3,0.4,0.3h7.9c0.2,0,0.3-0.1,0.4-0.3s0-0.4-0.1-0.5l-3.1-2.2v-9.7
			h4.6c0.2,0,0.4-0.1,0.5-0.2c0.1-0.2,0.1-0.4,0.1-0.5L53.2,8L53.2,8z M53.9,32.2h-6.7l2.9-2.1v-10h1v10L53.9,32.2z M44.9,19.5
			l3.6-11.3c0-0.1,0.1-0.1,0.1-0.1h3.9c0.1,0,0.1,0,0.1,0.1l3.6,11.3L44.9,19.5L44.9,19.5z"/>
		<path class="st4" d="M115.3,4.1c1.9,0,3.4,0.7,4.7,2c1.3,1.3,1.9,2.9,1.9,4.8c0,1.9-0.6,3.5-1.9,4.8c-1.2,1.3-2.8,2-4.7,2h-5.4
			V4.1H115.3z M115.3,15.1c1.2,0,2.1-0.4,2.9-1.2c0.7-0.8,1.1-1.8,1.1-3.1c0-1.3-0.4-2.3-1.1-3c-0.7-0.8-1.7-1.2-2.9-1.2h-2.7v8.4
			L115.3,15.1L115.3,15.1z"/>
		<path class="st4" d="M125.7,4.1h2.7v13.6h-2.7V4.1z"/>
		<path class="st4" d="M132,14.5l2.3-1.3c0.5,1.4,1.6,2.1,3.1,2.1s2.2-0.6,2.2-1.4c0-0.5-0.2-0.9-0.6-1.1c-0.4-0.3-1.2-0.6-2.3-0.9
			c-1.2-0.4-2-0.7-2.8-1.3c-0.8-0.6-1.3-1.5-1.3-2.8s0.4-2.2,1.3-2.9c0.9-0.7,2-1.1,3.2-1.1c2.2,0,3.9,1.1,4.9,3l-2.3,1.3
			c-0.5-1.2-1.4-1.7-2.6-1.7c-1.1,0-1.8,0.6-1.8,1.4c0,0.4,0.2,0.8,0.5,1c0.4,0.2,1.1,0.5,2.1,0.9l0.9,0.3c0.2,0.1,0.5,0.2,0.9,0.3
			c0.4,0.1,0.7,0.3,0.9,0.4c0.4,0.2,1,0.7,1.3,1.2c0.3,0.5,0.5,1.1,0.5,1.9c0,1.3-0.5,2.2-1.4,3c-0.9,0.7-2.1,1.1-3.6,1.1
			C134.7,17.9,132.8,16.6,132,14.5L132,14.5z"/>
		<path class="st4" d="M148.7,15.1h5.8v2.6H146V4.1h8.4v2.6h-5.7v2.9h5.2V12h-5.2V15.1z"/>
		<path class="st4" d="M166.2,4.1h2.7v13.6h-2.1L161,9.3v8.3h-2.7V4.1h2.1l5.9,8.3V4.1z M160.1,2.9c0-3,1.9-3.4,3.6-2.3
			c0.8,0.5,1,0.5,1-0.5h2.1c0,3.1-1.9,3.4-3.6,2.3c-0.8-0.5-1-0.5-1,0.5H160.1z"/>
		<path class="st4" d="M179.8,17.9c-2,0-3.7-0.7-5-2c-1.4-1.4-2.1-3-2.1-5c0-2,0.7-3.6,2.1-5s3.1-2.1,5-2.1s3.7,0.7,5,2.1
			c1.4,1.4,2.1,3,2.1,5c0,2-0.7,3.6-2.1,5C183.5,17.2,181.8,17.9,179.8,17.9z M179.8,15.3c1.2,0,2.3-0.4,3.1-1.2
			c0.8-0.8,1.3-1.9,1.3-3.2c0-1.3-0.4-2.4-1.3-3.2c-0.8-0.8-1.9-1.3-3.1-1.3s-2.3,0.4-3.1,1.3c-0.8,0.8-1.3,1.9-1.3,3.2
			c0,1.3,0.4,2.4,1.3,3.2C177.5,14.9,178.6,15.3,179.8,15.3z"/>
		<path class="st4" d="M203.1,4.1c1.9,0,3.4,0.7,4.7,2c1.3,1.3,1.9,2.9,1.9,4.8c0,1.9-0.6,3.5-1.9,4.8c-1.2,1.3-2.8,2-4.7,2h-5.4
			V4.1H203.1z M203.1,15.1c1.2,0,2.1-0.4,2.9-1.2c0.7-0.8,1.1-1.8,1.1-3.1c0-1.3-0.4-2.3-1.1-3c-0.7-0.8-1.7-1.2-2.9-1.2h-2.7v8.4
			L203.1,15.1L203.1,15.1z"/>
		<path class="st4" d="M216.2,15.1h5.8v2.6h-8.5V4.1h8.4v2.6h-5.7v2.9h5.2V12h-5.2V15.1z"/>
		<path class="st4" d="M123.2,25.2v13.6h-2.7v-8.8l-3.9,6.3h-0.3l-3.9-6.3v8.8h-2.7V25.2h2.8l3.9,6.4l3.9-6.4H123.2L123.2,25.2z"/>
		<path class="st4" d="M129.1,37.7c-1-0.9-1.5-2-1.5-3.4v-9.1h2.7v8.9c0,1.4,0.8,2.3,2.5,2.3s2.5-0.9,2.5-2.3v-8.9h2.7v9.1
			c0,1.4-0.5,2.6-1.5,3.4c-1,0.9-2.2,1.3-3.8,1.3C131.3,39,130.1,38.6,129.1,37.7z"/>
		<path class="st4" d="M145.1,36.2h5.8v2.6h-8.5V25.2h8.4v2.6h-5.7v2.9h5.2v2.5h-5.2V36.2z"/>
		<path class="st4" d="M164.8,34.8c0,1.1-0.4,2.1-1.2,2.8c-0.8,0.7-1.8,1.1-3,1.1h-5.8V25.2h5.4c1.2,0,2.1,0.4,3,1.1
			c0.8,0.7,1.2,1.6,1.2,2.7c0,1.1-0.4,2-1.3,2.7C164.2,32.4,164.8,33.4,164.8,34.8L164.8,34.8z M157.5,27.7v3h2.7
			c0.8,0,1.5-0.6,1.5-1.5c0-0.9-0.6-1.5-1.5-1.5H157.5z M160.6,36.2c0.9,0,1.6-0.7,1.6-1.6c0-0.9-0.7-1.6-1.6-1.6h-3.1v3.2H160.6z"
			/>
		<path class="st4" d="M171.2,36.2h5.2v2.6h-7.9V25.2h2.7L171.2,36.2L171.2,36.2z"/>
		<path class="st4" d="M182.6,36.2h5.8v2.6h-8.5V25.2h8.4v2.6h-5.7v2.9h5.2v2.5h-5.2V36.2z"/>
		<path class="st4" d="M191.5,35.7l2.3-1.3c0.5,1.4,1.6,2.1,3.1,2.1s2.2-0.6,2.2-1.4c0-0.5-0.2-0.9-0.6-1.1
			c-0.4-0.3-1.2-0.6-2.3-0.9c-1.2-0.4-2-0.7-2.8-1.3c-0.8-0.6-1.3-1.5-1.3-2.8c0-1.2,0.4-2.2,1.3-2.9c0.9-0.7,2-1.1,3.2-1.1
			c2.2,0,4,1.1,4.9,3l-2.3,1.3c-0.5-1.2-1.4-1.7-2.6-1.7c-1.1,0-1.8,0.6-1.8,1.4c0,0.4,0.2,0.8,0.5,1c0.4,0.2,1.1,0.5,2.1,0.9
			l0.9,0.3c0.2,0.1,0.5,0.2,0.9,0.3c0.4,0.1,0.7,0.3,0.9,0.4c0.4,0.2,1,0.7,1.3,1.2c0.3,0.5,0.5,1.1,0.5,1.9c0,1.3-0.5,2.2-1.4,3
			c-0.9,0.7-2.1,1.1-3.6,1.1C194.2,39,192.3,37.7,191.5,35.7L191.5,35.7z"/>
	</g>
</g>
</svg>
