<svg width="222" height="39" viewBox="0 0 222 39" fill="none" xmlns="http://www.w3.org/2000/svg">
<g clip-path="url(#clip0_23_84)">
<path d="M18.4158 38.4008C28.5866 38.4008 36.8317 30.2297 36.8317 20.1502C36.8317 10.0707 28.5866 1.89963 18.4158 1.89963C8.24505 1.89963 0 10.0707 0 20.1502C0 30.2297 8.24505 38.4008 18.4158 38.4008Z" fill="#949EAD"/>
<path d="M27.7621 10.7158H9.06967C8.58081 10.7158 8.18201 11.111 8.18201 11.5955V16.1724C8.18201 16.6569 8.58081 17.0521 9.06967 17.0521H10.4526L11.0058 29.0237C11.0187 29.3361 11.2824 29.5847 11.5976 29.5847H12.2344C12.556 29.5847 12.8133 29.3361 12.8262 29.0237L13.032 24.536H23.7805L23.9863 29.0237C23.9992 29.3424 24.2629 29.5847 24.5781 29.5847H25.2149C25.5365 29.5847 25.7938 29.3361 25.8067 29.0237L26.3599 17.0521H27.7428C28.2317 17.0521 28.6305 16.6569 28.6305 16.1724V11.5955C28.6305 11.111 28.2317 10.7158 27.7428 10.7158H27.7621ZM12.2215 28.9791L11.6169 28.9982L11.0637 17.0585H12.7683L12.2215 28.9855V28.9791ZM13.0706 23.924L13.1156 23.0124H23.7226L23.7676 23.924H13.0706ZM13.1414 22.4068L13.3858 17.0521H23.446L23.6904 22.4068H13.1349H13.1414ZM25.2149 28.9791L24.6103 28.9982L24.0571 17.0585H25.7616L25.2149 28.9855V28.9791ZM28.0387 16.1724C28.0387 16.3254 27.9165 16.4466 27.7621 16.4466H9.06967C8.9153 16.4466 8.79308 16.3254 8.79308 16.1724V11.5955C8.79308 11.4425 8.9153 11.3213 9.06967 11.3213H27.7621C27.9165 11.3213 28.0387 11.4425 28.0387 11.5955V16.1724Z" fill="#EAE4E1"/>
<path d="M82.6494 38.4008C92.8202 38.4008 101.065 30.2297 101.065 20.1502C101.065 10.0707 92.8202 1.89963 82.6494 1.89963C72.4786 1.89963 64.2335 10.0707 64.2335 20.1502C64.2335 30.2297 72.4786 38.4008 82.6494 38.4008Z" fill="#9B867B"/>
<path d="M91.719 8.33801H73.5733C73.1487 8.33801 72.8014 8.68224 72.8014 9.10297V28.705C72.8014 29.1257 73.1487 29.4699 73.5733 29.4699H74.1972L74.4481 31.5226C74.4802 31.7775 74.6989 31.9688 74.9562 31.9688H75.8954C76.1526 31.9688 76.3713 31.7775 76.4035 31.5226L76.6544 29.4699H88.6379L88.8887 31.5226C88.9209 31.7775 89.1396 31.9688 89.3969 31.9688H90.336C90.5933 31.9688 90.812 31.7775 90.8442 31.5226L91.095 29.4699H91.719C92.1435 29.4699 92.4908 29.1257 92.4908 28.705V9.10297C92.4908 8.68224 92.1435 8.33801 91.719 8.33801ZM75.8053 31.3568H75.0463L74.8147 29.4635H76.0369L75.8053 31.3568ZM90.246 31.3568H89.4869L89.2554 29.4635H90.4775L90.246 31.3568ZM91.8798 28.6986C91.8798 28.7815 91.809 28.8516 91.7254 28.8516H73.5797C73.4961 28.8516 73.4253 28.7815 73.4253 28.6986V22.6236H91.8862V28.6986H91.8798ZM91.8798 22.0116H73.4189V15.7772H91.8798V22.0116ZM91.8798 15.1716H73.4189V9.10297C73.4189 9.0201 73.4897 8.94998 73.5733 8.94998H91.719C91.8026 8.94998 91.8733 9.0201 91.8733 9.10297V15.178L91.8798 15.1716Z" fill="#EAE4E1"/>
<path d="M77.2076 11.468C76.8795 11.468 76.6094 11.7357 76.6094 12.0608C76.6094 12.3859 76.8795 12.6536 77.2076 12.6536C77.5356 12.6536 77.8058 12.3859 77.8058 12.0608C77.8058 11.7357 77.5356 11.468 77.2076 11.468Z" fill="#EAE4E1"/>
<path d="M88.0847 11.468C87.7566 11.468 87.4865 11.7357 87.4865 12.0608C87.4865 12.3859 87.7566 12.6536 88.0847 12.6536C88.4127 12.6536 88.6829 12.3859 88.6829 12.0608C88.6829 11.7357 88.4127 11.468 88.0847 11.468Z" fill="#EAE4E1"/>
<path d="M77.2076 19.4936C77.5356 19.4936 77.8058 19.2259 77.8058 18.9008C77.8058 18.5757 77.5356 18.3079 77.2076 18.3079C76.8795 18.3079 76.6094 18.5757 76.6094 18.9008C76.6094 19.2259 76.8795 19.4936 77.2076 19.4936Z" fill="#EAE4E1"/>
<path d="M88.0847 19.4936C88.4127 19.4936 88.6829 19.2259 88.6829 18.9008C88.6829 18.5757 88.4127 18.3079 88.0847 18.3079C87.7566 18.3079 87.4865 18.5757 87.4865 18.9008C87.4865 19.2259 87.7566 19.4936 88.0847 19.4936Z" fill="#EAE4E1"/>
<path d="M77.2076 26.3336C77.5356 26.3336 77.8058 26.0659 77.8058 25.7408C77.8058 25.4157 77.5356 25.1479 77.2076 25.1479C76.8795 25.1479 76.6094 25.4157 76.6094 25.7408C76.6094 26.0659 76.8795 26.3336 77.2076 26.3336Z" fill="#EAE4E1"/>
<path d="M88.0847 26.3336C88.4127 26.3336 88.6829 26.0659 88.6829 25.7408C88.6829 25.4157 88.4127 25.1479 88.0847 25.1479C87.7566 25.1479 87.4865 25.4157 87.4865 25.7408C87.4865 26.0659 87.7566 26.3336 88.0847 26.3336Z" fill="#EAE4E1"/>
<path d="M50.5327 38.4008C60.7035 38.4008 68.9485 30.2297 68.9485 20.1502C68.9485 10.0707 60.7035 1.89963 50.5327 1.89963C40.3619 1.89963 32.1168 10.0707 32.1168 20.1502C32.1168 30.2297 40.3619 38.4008 50.5327 38.4008Z" fill="#4B505E"/>
<path d="M53.1635 8.02566C53.067 7.71967 52.784 7.51569 52.4624 7.51569H48.6094C48.2878 7.51569 48.0048 7.71967 47.9083 8.02566L44.319 19.3279C44.2611 19.5127 44.2933 19.704 44.4091 19.8633C44.5249 20.0163 44.705 20.1056 44.8979 20.1056H46.4353V22.7319C46.1008 22.8531 45.8628 23.1718 45.8628 23.5479C45.8628 24.0324 46.2552 24.4212 46.744 24.4212C47.2329 24.4212 47.6253 24.0324 47.6253 23.5479C47.6253 23.1718 47.3873 22.8531 47.0528 22.7319V20.1056H49.452V29.795L46.3388 32.0389C46.1908 32.1409 46.1329 32.3258 46.1908 32.4915C46.2423 32.6572 46.4031 32.772 46.5832 32.772H54.5143C54.6944 32.772 54.8488 32.6572 54.9067 32.4915C54.9646 32.3258 54.9067 32.1409 54.7587 32.0389L51.639 29.795V20.1056H56.1932C56.3861 20.1056 56.5662 20.0163 56.682 19.8633C56.7978 19.7104 56.83 19.5127 56.7721 19.3279L53.1828 8.02566H53.1635ZM53.8711 32.1791H47.1943L50.0567 30.1138V20.112H51.0087V30.1138L53.8711 32.1791ZM44.8979 19.5127L48.4872 8.21052C48.5065 8.15952 48.5515 8.12128 48.603 8.12128H52.456C52.5074 8.12128 52.5589 8.15315 52.5717 8.20415L56.161 19.5L44.8915 19.5127H44.8979Z" fill="#EAE4E1"/>
<path d="M115.287 4.05426C117.165 4.05426 118.728 4.71085 119.976 6.01127C121.244 7.3117 121.874 8.9181 121.874 10.8369C121.874 12.7556 121.25 14.362 119.976 15.6625C118.728 16.9629 117.159 17.6195 115.287 17.6195H109.852V4.05426H115.287ZM115.287 15.0569C116.477 15.0569 117.436 14.668 118.182 13.8967C118.921 13.0999 119.295 12.0927 119.295 10.8369C119.295 9.58107 118.921 8.5675 118.182 7.79617C117.442 6.99934 116.484 6.61686 115.287 6.61686H112.553V15.0632H115.287V15.0569Z" fill="white"/>
<path d="M125.74 4.05426H128.435V17.6131H125.74V4.05426Z" fill="white"/>
<path d="M132.011 14.5342L134.321 13.1955C134.848 14.5724 135.903 15.2672 137.466 15.2672C139.029 15.2672 139.653 14.668 139.653 13.8329C139.653 13.3485 139.441 12.9787 139.01 12.7301C138.579 12.456 137.82 12.1692 136.701 11.8568C135.472 11.4871 134.726 11.2002 133.864 10.601C133.021 9.98267 132.571 9.05197 132.571 7.80892C132.571 6.56587 133.002 5.6033 133.883 4.88296C134.764 4.14988 135.839 3.78015 137.067 3.78015C139.273 3.78015 141.017 4.90209 141.956 6.82085L139.685 8.12128C139.138 6.96109 138.257 6.37463 137.067 6.37463C135.954 6.37463 135.266 6.93559 135.266 7.73242C135.266 8.15952 135.44 8.51013 135.794 8.77786C136.167 9.02647 136.848 9.31971 137.865 9.63206L138.804 9.94442C139.016 10.0018 139.312 10.1165 139.685 10.2759C140.058 10.4098 140.348 10.55 140.547 10.6839C140.959 10.9325 141.583 11.417 141.84 11.8823C142.136 12.3477 142.348 13.0234 142.348 13.8011C142.348 15.0569 141.879 16.0449 140.959 16.7844C140.039 17.5175 138.849 17.8872 137.382 17.8872C134.668 17.8872 132.77 16.6059 132.005 14.5342H132.011Z" fill="white"/>
<path d="M148.658 15.0569H154.422V17.6131H145.957V4.05426H154.325V6.61049H148.658V9.4982H153.836V12.0162H148.658V15.0569Z" fill="white"/>
<path d="M166.193 4.05427H168.888V17.6131H166.836L160.97 9.31972V17.6131H158.275V4.05427H160.327L166.193 12.3222V4.05427ZM160.114 2.89409C160.114 -0.146614 161.993 -0.535467 163.671 0.548221C164.43 1.07094 164.688 1.01357 164.688 0.0828725H166.74C166.74 3.18094 164.842 3.47418 163.183 2.42874C162.424 1.90602 162.147 1.96339 162.147 2.89409H160.114Z" fill="white"/>
<path d="M179.849 17.8872C177.874 17.8872 176.195 17.2115 174.806 15.8537C173.436 14.4768 172.754 12.813 172.754 10.8369C172.754 8.86074 173.436 7.19696 174.806 5.83916C176.176 4.48136 177.874 3.78653 179.849 3.78653C181.824 3.78653 183.502 4.46224 184.892 5.83916C186.281 7.19696 186.963 8.86074 186.963 10.8369C186.963 12.813 186.281 14.4768 184.892 15.8537C183.502 17.2115 181.824 17.8872 179.849 17.8872ZM179.849 15.2736C181.097 15.2736 182.158 14.8656 182.994 14.0369C183.837 13.2019 184.268 12.1373 184.268 10.8432C184.268 9.5492 183.837 8.47826 182.994 7.64956C182.152 6.81448 181.097 6.38738 179.849 6.38738C178.601 6.38738 177.54 6.81448 176.703 7.64956C175.861 8.48463 175.436 9.5492 175.436 10.8432C175.436 12.1373 175.867 13.2082 176.703 14.0369C177.546 14.872 178.601 15.2736 179.849 15.2736Z" fill="white"/>
<path d="M203.082 4.05426C204.961 4.05426 206.524 4.71085 207.772 6.01127C209.039 7.3117 209.669 8.9181 209.669 10.8369C209.669 12.7556 209.045 14.362 207.772 15.6625C206.524 16.9629 204.954 17.6195 203.082 17.6195H197.647V4.05426H203.082ZM203.082 15.0569C204.272 15.0569 205.231 14.668 205.977 13.8967C206.717 13.0999 207.09 12.0927 207.09 10.8369C207.09 9.58107 206.717 8.5675 205.977 7.79617C205.237 6.99934 204.279 6.61686 203.082 6.61686H200.349V15.0632H203.082V15.0569Z" fill="white"/>
<path d="M216.23 15.0569H221.994V17.6131H213.529V4.05426H221.897V6.61049H216.23V9.4982H221.408V12.0162H216.23V15.0569Z" fill="white"/>
<path d="M123.244 25.1734V38.7323H120.568V29.9353L116.715 36.2334H116.4L112.547 29.9544V38.7323H109.852V25.1734H112.631L116.561 31.5863L120.472 25.1734H123.25H123.244Z" fill="white"/>
<path d="M129.078 37.7251C128.1 36.8709 127.612 35.7298 127.612 34.2955V25.1734H130.287V34.0852C130.287 35.5003 131.091 36.3928 132.828 36.3928C134.565 36.3928 135.369 35.5003 135.369 34.0852V25.1734H138.064V34.2955C138.064 35.7298 137.575 36.8709 136.598 37.7251C135.62 38.5793 134.372 39.0064 132.828 39.0064C131.284 39.0064 130.056 38.5793 129.078 37.7251Z" fill="white"/>
<path d="M145.146 36.176H150.91V38.7323H142.445V25.1734H150.813V27.7297H145.146V30.6174H150.324V33.1353H145.146V36.176Z" fill="white"/>
<path d="M164.823 34.7991C164.823 35.9402 164.411 36.89 163.594 37.6295C162.771 38.3625 161.755 38.7323 160.565 38.7323H154.763V25.1734H160.159C161.33 25.1734 162.308 25.5432 163.112 26.2571C163.916 26.9711 164.321 27.8826 164.321 28.9855C164.321 30.0883 163.89 31.019 163.028 31.6947C164.218 32.3704 164.829 33.4158 164.829 34.7928L164.823 34.7991ZM157.451 27.6723V30.6556H160.146C160.989 30.6556 161.613 30.0182 161.613 29.1639C161.613 28.3097 161.008 27.6723 160.146 27.6723H157.451ZM160.558 36.2334C161.478 36.2334 162.14 35.5577 162.14 34.627C162.14 33.6963 161.478 33.0397 160.558 33.0397H157.451V36.2334H160.558Z" fill="white"/>
<path d="M171.229 36.176H176.446V38.7323H168.528V25.1734H171.223V36.176H171.229Z" fill="white"/>
<path d="M182.621 36.176H188.384V38.7323H179.919V25.1734H188.288V27.7297H182.621V30.6174H187.799V33.1353H182.621V36.176Z" fill="white"/>
<path d="M191.536 35.6533L193.846 34.3147C194.373 35.6916 195.428 36.3864 196.991 36.3864C198.554 36.3864 199.178 35.7872 199.178 34.9521C199.178 34.4676 198.966 34.0979 198.535 33.8493C198.104 33.5752 197.345 33.2883 196.226 32.976C194.997 32.6063 194.251 32.3194 193.389 31.7202C192.546 31.1018 192.096 30.1711 192.096 28.9281C192.096 27.685 192.527 26.7225 193.408 26.0021C194.289 25.2691 195.364 24.8993 196.592 24.8993C198.798 24.8993 200.542 26.0213 201.481 27.94L199.21 29.2404C198.663 28.0803 197.782 27.4938 196.592 27.4938C195.479 27.4938 194.791 28.0548 194.791 28.8516C194.791 29.2787 194.965 29.6293 195.319 29.897C195.692 30.1456 196.373 30.4389 197.39 30.7512L198.329 31.0636C198.541 31.121 198.837 31.2357 199.21 31.3951C199.583 31.5289 199.873 31.6692 200.072 31.803C200.484 32.0517 201.108 32.5361 201.365 33.0015C201.661 33.4668 201.873 34.1425 201.873 34.9202C201.873 36.176 201.404 37.1641 200.484 37.9036C199.564 38.6367 198.374 39.0064 196.907 39.0064C194.193 39.0064 192.295 37.7251 191.53 35.6533H191.536Z" fill="white"/>
</g>
<defs>
<clipPath id="clip0_23_84">
<rect width="222" height="39" fill="white"/>
</clipPath>
</defs>
</svg>
