<svg width="68" height="68" viewBox="0 0 68 68" fill="none" xmlns="http://www.w3.org/2000/svg">
<path d="M58.0416 9.95841C51.62 3.53653 43.0817 0 34 0C24.9183 0 16.38 3.53653 9.95841 9.95841C3.53666 16.3802 0 24.9183 0 34C0 43.0817 3.53653 51.62 9.95841 58.0416C16.3802 64.4633 24.9183 68 34 68C43.0817 68 51.62 64.4635 58.0416 58.0416C64.4633 51.6198 68 43.0817 68 34C68 24.9183 64.4635 16.38 58.0416 9.95841ZM34 65.2245C16.7829 65.2245 2.77552 51.2171 2.77552 34C2.77552 16.7829 16.7829 2.77552 34 2.77552C51.2171 2.77552 65.2245 16.7829 65.2245 34C65.2245 51.2171 51.2171 65.2245 34 65.2245Z" fill="white"/>
<path d="M34 5.55103C18.3131 5.55103 5.55103 18.3131 5.55103 34C5.55103 49.6869 18.3131 62.449 34 62.449C49.6867 62.449 62.449 49.6869 62.449 34C62.449 18.3131 49.6867 5.55103 34 5.55103ZM34 59.6734C19.8436 59.6734 8.32654 48.1563 8.32654 34C8.32654 19.8436 19.8436 8.32654 34 8.32654C48.1565 8.32654 59.6734 19.8436 59.6734 34C59.6734 48.1563 48.1565 59.6734 34 59.6734Z" fill="white"/>
<path d="M55.4804 27.2161C55.1156 26.0934 54.1634 25.2906 52.9953 25.1208L41.7775 23.4908L36.7609 13.3259C36.2384 12.2672 35.1806 11.6097 34.0002 11.6098C32.8197 11.6098 31.7619 12.2675 31.2395 13.3259L26.2228 23.4908L15.0052 25.1208C13.837 25.2906 12.8847 26.0934 12.5199 27.2161C12.1552 28.3387 12.4537 29.548 13.2989 30.3721L21.416 38.2844L19.4998 49.4567C19.3002 50.6202 19.7696 51.774 20.7246 52.4678C21.6795 53.1618 22.922 53.2516 23.9668 52.7021L34 47.4273L44.0333 52.7023C44.4878 52.9412 44.9795 53.0593 45.4689 53.0593C46.1046 53.0593 46.7359 52.86 47.2757 52.4681C48.2308 51.7743 48.7001 50.6204 48.5005 49.457L46.5843 38.2847L54.7014 30.3724C55.5467 29.5481 55.8453 28.3387 55.4804 27.2161ZM52.764 28.3847L44.1245 36.8063C43.7975 37.1251 43.6482 37.5845 43.7254 38.0346L45.7648 49.9259C45.7859 50.0492 45.7454 50.1489 45.6442 50.2225C45.543 50.2961 45.436 50.3038 45.3249 50.2456L34.6459 44.6312C34.4439 44.525 34.222 44.4717 34.0002 44.4717C33.7784 44.4717 33.5564 44.5249 33.3544 44.6312L22.6752 50.2456C22.5646 50.3038 22.4573 50.2961 22.356 50.2225C22.2548 50.1489 22.2142 50.0492 22.2354 49.9259L24.275 38.0346C24.3523 37.5843 24.203 37.1251 23.8759 36.8063L15.2363 28.3847C15.1466 28.2974 15.1209 28.1928 15.1595 28.0738C15.198 27.9549 15.2805 27.8854 15.4043 27.8674L27.3439 26.1325C27.7958 26.0668 28.1867 25.7829 28.3887 25.3733L33.7284 14.5541C33.7838 14.442 33.8753 14.3852 34.0003 14.3852C34.1253 14.3852 34.2169 14.442 34.2722 14.5543L39.6116 25.3733C39.8138 25.7828 40.2045 26.0667 40.6565 26.1325L52.5963 27.8674C52.7201 27.8854 52.8023 27.9548 52.8409 28.0738C52.8795 28.1928 52.8536 28.2974 52.764 28.3847Z" fill="white"/>
</svg>
