<svg width="68" height="68" viewBox="0 0 68 68" fill="none" xmlns="http://www.w3.org/2000/svg">
<path d="M51 57.375V42.5C51 41.327 50.048 40.375 48.875 40.375H40.375V37.1471C47.7934 34.5143 53.125 27.4338 53.125 19.125V2.125C53.125 0.952 52.173 0 51 0H17C15.827 0 14.875 0.952 14.875 2.125V18.4493C14.875 26.8451 20.0961 34.3591 27.625 37.1195V40.375H19.125C17.952 40.375 17 41.327 17 42.5V57.375H14.875C13.702 57.375 12.75 58.327 12.75 59.5V65.875C12.75 67.048 13.702 68 14.875 68H53.125C54.298 68 55.25 67.048 55.25 65.875V59.5C55.25 58.327 54.298 57.375 53.125 57.375H51ZM51 63.75H17V61.625H51V63.75ZM31.875 38.25H36.125V42.5H31.875V38.25ZM19.125 4.25H48.875V8.5H19.125V4.25ZM19.125 19.125V10.625H48.875V19.125C48.875 27.3275 42.2025 34 34 34C25.7975 34 19.125 27.3275 19.125 19.125ZM21.25 44.625H46.75V59.5H21.25V44.625ZM25.5 48.875H42.5V51H25.5V48.875ZM25.5 53.125H42.5V55.25H25.5V53.125Z" fill="white"/>
</svg>
